<svg xmlns="http://www.w3.org/2000/svg" width="232.056" height="68" viewBox="0 0 232.056 68"><defs><style>.a{font-size:31px;font-family:Poppins-SemiBold, Poppins;font-weight:600;letter-spacing:0.2em;}.b{fill:#e40068;}.c,.d{stroke:none;}.d{fill:#fff;}</style></defs><g transform="translate(-365.175 -26.961)"><text class="a" transform="translate(531.231 72.512)"><tspan x="-65.906" y="0">BRAND</tspan></text><g class="b" transform="translate(365.175 26.961)"><path class="c" d="M 34 67 C 29.54458999633789 67 25.22298049926758 66.12761688232422 21.15522003173828 64.40711212158203 C 17.2257194519043 62.74507141113281 13.69645977020264 60.36550903320312 10.66547966003418 57.33451843261719 C 7.634490013122559 54.30353927612305 5.254930019378662 50.7742805480957 3.592890024185181 46.84477996826172 C 1.872380018234253 42.77701950073242 1 38.45541000366211 1 34 C 1 29.54458999633789 1.872380018234253 25.22298049926758 3.592890024185181 21.15522003173828 C 5.254930019378662 17.2257194519043 7.634490013122559 13.69645977020264 10.66547966003418 10.66547966003418 C 13.69645977020264 7.634490013122559 17.2257194519043 5.254930019378662 21.15522003173828 3.592890024185181 C 25.22298049926758 1.872380018234253 29.54458999633789 1 34 1 C 38.45541000366211 1 42.77701950073242 1.872380018234253 46.84477996826172 3.592890024185181 C 50.7742805480957 5.254930019378662 54.30353927612305 7.634490013122559 57.33451843261719 10.66547966003418 C 60.36550903320312 13.69645977020264 62.74507141113281 17.2257194519043 64.40711212158203 21.15522003173828 C 66.12761688232422 25.22298049926758 67 29.54458999633789 67 34 C 67 38.45541000366211 66.12761688232422 42.77701950073242 64.40711212158203 46.84477996826172 C 62.74507141113281 50.7742805480957 60.36550903320312 54.30353927612305 57.33451843261719 57.33451843261719 C 54.30353927612305 60.36550903320312 50.7742805480957 62.74507141113281 46.84477996826172 64.40711212158203 C 42.77701950073242 66.12761688232422 38.45541000366211 67 34 67 Z"/><path class="d" d="M 34 2 C 29.67914581298828 2 25.48860168457031 2.845802307128906 21.54476547241211 4.513900756835938 C 17.73447799682617 6.125522613525391 14.31205368041992 8.433109283447266 11.37258911132812 11.37258911132812 C 8.433109283447266 14.31205368041992 6.125522613525391 17.73447799682617 4.513900756835938 21.54476547241211 C 2.845802307128906 25.48860168457031 2 29.67914581298828 2 34 C 2 38.32085418701172 2.845802307128906 42.51139831542969 4.513900756835938 46.45523071289062 C 6.125522613525391 50.26552200317383 8.433109283447266 53.68794250488281 11.37258911132812 56.62741088867188 C 14.31205368041992 59.56688690185547 17.73447799682617 61.87447738647461 21.54476547241211 63.48609924316406 C 25.48860168457031 65.15419769287109 29.67914581298828 66 34 66 C 38.32085418701172 66 42.51139831542969 65.15419769287109 46.45523071289062 63.48609924316406 C 50.26552200317383 61.87447738647461 53.68794250488281 59.56688690185547 56.62741088867188 56.62741088867188 C 59.56688690185547 53.68794250488281 61.87447738647461 50.26552200317383 63.48609924316406 46.45523071289062 C 65.15419769287109 42.51139831542969 66 38.32085418701172 66 34 C 66 29.67914581298828 65.15419769287109 25.48860168457031 63.48609924316406 21.54476547241211 C 61.87447738647461 17.73447799682617 59.56688690185547 14.31205368041992 56.62741088867188 11.37258911132812 C 53.68794250488281 8.433109283447266 50.26552200317383 6.125522613525391 46.45523071289062 4.513900756835938 C 42.51139831542969 2.845802307128906 38.32085418701172 2 34 2 M 34 0 C 52.77767944335938 0 68 15.22232055664062 68 34 C 68 52.77767944335938 52.77767944335938 68 34 68 C 15.22232055664062 68 0 52.77767944335938 0 34 C 0 15.22232055664062 15.22232055664062 0 34 0 Z"/></g></g></svg>